<svg width="16" height="17" viewBox="0 0 16 17" fill="none" xmlns="http://www.w3.org/2000/svg">
<path d="M8.00356 4.4048C5.73214 4.4048 3.89999 6.23161 3.89999 8.49644C3.89999 10.7613 5.73214 12.5881 8.00356 12.5881C10.275 12.5881 12.1071 10.7613 12.1071 8.49644C12.1071 6.23161 10.275 4.4048 8.00356 4.4048ZM8.00356 11.1565C6.53571 11.1565 5.33571 9.96359 5.33571 8.49644C5.33571 7.02929 6.53214 5.83634 8.00356 5.83634C9.47499 5.83634 10.6714 7.02929 10.6714 8.49644C10.6714 9.96359 9.47142 11.1565 8.00356 11.1565ZM13.2321 4.23743C13.2321 4.76802 12.8036 5.19179 12.275 5.19179C11.7429 5.19179 11.3179 4.76446 11.3179 4.23743C11.3179 3.71039 11.7464 3.28307 12.275 3.28307C12.8036 3.28307 13.2321 3.71039 13.2321 4.23743ZM15.95 5.20603C15.8893 3.92762 15.5964 2.7952 14.6571 1.86221C13.7214 0.929216 12.5857 0.63721 11.3036 0.573111C9.98214 0.49833 6.02142 0.49833 4.69999 0.573111C3.42142 0.633649 2.28571 0.925655 1.34642 1.85865C0.407136 2.79164 0.11785 3.92406 0.0535644 5.20247C-0.0214355 6.52006 -0.0214355 10.4693 0.0535644 11.7868C0.114279 13.0653 0.407136 14.1977 1.34642 15.1307C2.28571 16.0637 3.41785 16.3557 4.69999 16.4198C6.02142 16.4945 9.98214 16.4945 11.3036 16.4198C12.5857 16.3592 13.7214 16.0672 14.6571 15.1307C15.5928 14.1977 15.8857 13.0653 15.95 11.7868C16.025 10.4693 16.025 6.52362 15.95 5.20603ZM14.2428 13.2006C13.9643 13.8985 13.425 14.4363 12.7214 14.7176C11.6679 15.1342 9.16785 15.0381 8.00356 15.0381C6.83928 15.0381 4.33571 15.1307 3.28571 14.7176C2.58571 14.4398 2.04642 13.9021 1.76428 13.2006C1.34642 12.1501 1.44285 9.65734 1.44285 8.49644C1.44285 7.33554 1.34999 4.83924 1.76428 3.7923C2.04285 3.09433 2.58214 2.55661 3.28571 2.27529C4.33928 1.85865 6.83928 1.9548 8.00356 1.9548C9.16785 1.9548 11.6714 1.86221 12.7214 2.27529C13.4214 2.55305 13.9607 3.09077 14.2428 3.7923C14.6607 4.84281 14.5643 7.33554 14.5643 8.49644C14.5643 9.65734 14.6607 12.1536 14.2428 13.2006Z" fill="white"/>
</svg>
