<svg width="55" height="42" viewBox="0 0 55 42" fill="none" xmlns="http://www.w3.org/2000/svg">
<path d="M23.3665 41.8856C-1.72586 20.0784 10.8202 30.9823 23.3665 41.8856V41.8856ZM39.3199 35.2576C3.59171 17.8695 21.4559 26.5631 39.3199 35.2576V35.2576ZM47.1409 29.6748C45.5672 30.0078 43.6431 30.0088 41.9055 29.6775L41.3305 29.5678L42.2416 28.0379C43.8924 25.2655 44.9419 23.1746 46.0571 20.4372C47.1593 17.7311 47.9021 15.3175 48.4391 12.6976C48.7349 11.2539 49.0997 8.90101 49.0228 8.93298C49.0046 8.94054 48.8685 9.46167 48.7202 10.0911C47.1549 16.7374 43.869 23.6046 40.1947 27.9096C39.7848 28.3897 39.4227 28.7624 39.3899 28.7379C39.0378 28.4744 37.7562 26.7759 37.1187 25.7279C36.4668 24.6561 35.7166 22.8025 35.5373 21.8204C35.1929 19.9341 35.3996 18.4028 36.2287 16.6969C37.2296 14.6378 38.8324 12.7957 41.7152 10.3917C45.0987 7.57018 46.1214 6.55513 47.205 4.94368C47.9733 3.8012 48.6193 2.23807 48.8639 0.929911C48.9386 0.530798 49.0183 0.195248 49.041 0.184211C49.1123 0.149694 49.9145 1.43123 50.3868 2.33422C51.0869 3.67264 51.6743 5.05806 52.1562 6.50726C54.963 14.9475 54.7655 22.968 51.6553 26.8556C51.1005 27.549 50.4397 28.1586 49.8015 28.5657C49.1394 28.988 47.8533 29.5244 47.1416 29.6751L47.1409 29.6748ZM30.1056 36.632C27.0802 37.5795 24.2472 37.5713 21.5077 36.6069C18.5519 35.5668 15.4673 33.0616 13.5036 30.1063C12.6311 28.7934 12.1005 27.7461 10.8285 24.8267C10.1692 23.3135 9.49006 21.8493 9.26007 21.4454C7.44891 18.2647 5.14031 16.7159 0.921715 15.8519L0.291308 15.7227L0.637522 15.4317C1.16769 14.9861 2.34591 14.1909 3.09936 13.7701C4.24271 13.1317 7.1685 12.0206 8.70831 11.64C14.3319 10.25 20.6961 10.2345 26.1867 11.5975C29.2935 12.3687 32.2907 13.703 34.2977 15.2081L34.7988 15.5839L34.2966 16.7799C33.7481 18.0862 33.5746 18.7539 33.5167 19.7819C33.3902 22.03 34.34 24.4782 36.2374 26.7938C36.5219 27.1411 36.7489 27.4391 36.7419 27.4559C36.7348 27.4728 36.5501 27.3326 36.3313 27.1444C31.9358 23.3633 27.3183 20.7633 22.3555 19.2748C21.0897 18.8952 18.3737 18.2735 18.2343 18.3314C18.2157 18.3392 18.8739 18.6402 19.697 19.0004C23.679 20.7426 27.0269 22.6789 30.0192 24.9696C31.1005 25.7974 33.0021 27.5208 33.8469 28.4386C35.0415 29.7363 36.2488 31.4094 36.6306 32.2964L36.8211 32.7387L36.2833 33.1906C34.6411 34.5703 32.0126 36.0345 30.106 36.6316L30.1056 36.632ZM36.8878 27.6551C36.847 27.6246 36.8224 27.5786 36.8331 27.5529C36.8439 27.5272 36.8898 27.547 36.9353 27.5968C37.0296 27.7002 36.9987 27.7382 36.8878 27.6551Z" fill="#F88500"/>
</svg>
