<svg width="8" height="15" viewBox="0 0 8 15" fill="none" xmlns="http://www.w3.org/2000/svg">
<path d="M1.47074 1.16551L6.93333 7.45452C6.97806 7.50553 7.01363 7.56662 7.03792 7.63416C7.06222 7.7017 7.07474 7.77431 7.07474 7.84767C7.07474 7.92103 7.06222 7.99364 7.03792 8.06119C7.01363 8.12873 6.97806 8.18982 6.93333 8.24082C6.84184 8.34538 6.71942 8.40385 6.59199 8.40385C6.46456 8.40385 6.34214 8.34538 6.25065 8.24082L0.788069 1.95182C0.743336 1.90081 0.707765 1.83972 0.683472 1.77218C0.659179 1.70464 0.64666 1.63203 0.646659 1.55867C0.646659 1.4853 0.659179 1.41269 0.683472 1.34515C0.707765 1.27761 0.743336 1.21652 0.788068 1.16551C0.879555 1.06096 1.00198 1.00249 1.12941 1.00249C1.25683 1.00249 1.37926 1.06096 1.47074 1.16551Z" fill="#8C9AB3"/>
<path d="M0.788087 13.7378L6.25067 7.4488C6.34216 7.34424 6.46458 7.28577 6.59201 7.28577C6.71944 7.28577 6.84186 7.34424 6.93334 7.4488C6.97808 7.4998 7.01365 7.56089 7.03794 7.62843C7.06223 7.69598 7.07475 7.76859 7.07475 7.84195C7.07475 7.91531 7.06223 7.98792 7.03794 8.05546C7.01365 8.123 6.97808 8.18409 6.93334 8.2351L1.47076 14.5241C1.37912 14.6285 1.25661 14.6867 1.12918 14.6864C1.00175 14.6862 0.879418 14.6274 0.788087 14.5227C0.74354 14.4717 0.708125 14.4107 0.683942 14.3433C0.659758 14.2759 0.647298 14.2034 0.647298 14.1302C0.647297 14.0571 0.659758 13.9846 0.683942 13.9172C0.708125 13.8498 0.74354 13.7888 0.788087 13.7378Z" fill="#8C9AB3"/>
</svg>
