<svg width="16" height="13" viewBox="0 0 16 13" fill="none" xmlns="http://www.w3.org/2000/svg">
<path d="M14.3553 3.24113C14.3655 3.38325 14.3655 3.52541 14.3655 3.66753C14.3655 8.00253 11.066 12.9975 5.03553 12.9975C3.17766 12.9975 1.45178 12.4594 0 11.5254C0.263969 11.5558 0.51775 11.566 0.791875 11.566C2.32484 11.566 3.73603 11.0483 4.86294 10.165C3.42131 10.1345 2.21319 9.19038 1.79694 7.89088C2 7.92131 2.20303 7.94163 2.41625 7.94163C2.71066 7.94163 3.00509 7.901 3.27919 7.82997C1.77666 7.52538 0.649719 6.2056 0.649719 4.61169V4.57109C1.08625 4.81475 1.59391 4.96703 2.13194 4.98731C1.24869 4.39847 0.670031 3.39341 0.670031 2.25634C0.670031 1.64722 0.832438 1.08884 1.11672 0.601532C2.73094 2.59138 5.15734 3.89084 7.87813 4.033C7.82738 3.78934 7.79691 3.53556 7.79691 3.28175C7.79691 1.47463 9.25884 0.00256348 11.0761 0.00256348C12.0203 0.00256348 12.873 0.398501 13.472 1.03809C14.2131 0.89597 14.9238 0.621845 15.5533 0.24622C15.3096 1.00766 14.7918 1.64725 14.1116 2.05331C14.7715 1.98228 15.4111 1.7995 15.9999 1.54572C15.5533 2.19544 14.9949 2.77409 14.3553 3.24113Z" fill="white"/>
</svg>
