<svg width="26" height="15" viewBox="0 0 26 15" fill="none" xmlns="http://www.w3.org/2000/svg">
<path d="M24.6007 1.38137C24.7677 0.829096 24.6007 0.422619 23.7972 0.422619H21.1386C20.4615 0.422619 20.15 0.771659 19.983 1.16046C19.983 1.16046 18.6288 4.39019 16.7149 6.48443C16.0965 7.08972 15.8122 7.28412 15.4736 7.28412C15.3066 7.28412 15.0493 7.08972 15.0493 6.53744V1.38137C15.0493 0.71864 14.8597 0.422619 14.3 0.422619H10.1202C9.69585 0.422619 9.44307 0.731895 9.44307 1.01908C9.44307 1.64647 10.4 1.79227 10.4993 3.55956V7.39458C10.4993 8.23404 10.3458 8.38868 10.0073 8.38868C9.10453 8.38868 6.91078 5.1457 5.61078 1.43439C5.34898 0.714222 5.09168 0.422619 4.41009 0.422619H1.75141C0.993072 0.422619 0.8396 0.771659 0.8396 1.16046C0.8396 1.84971 1.74238 5.27383 5.04203 9.7981C7.24029 12.8864 10.3368 14.5609 13.1535 14.5609C14.8462 14.5609 15.0538 14.1898 15.0538 13.5492C15.0538 10.5978 14.9004 10.3194 15.749 10.3194C16.1417 10.3194 16.8188 10.5138 18.3986 12.0028C20.2042 13.7701 20.5021 14.5609 21.5132 14.5609H24.1719C24.9302 14.5609 25.3139 14.1898 25.0927 13.4564C24.5872 11.9144 21.1702 8.74214 21.0167 8.53006C20.624 8.03522 20.7368 7.81431 21.0167 7.37249C21.0212 7.36807 24.2667 2.89683 24.6007 1.38137V1.38137Z" fill="white"/>
</svg>
