<svg width="51" height="51" viewBox="0 0 51 51" fill="none" xmlns="http://www.w3.org/2000/svg">
<g clip-path="url(#clip0_24_354)">
<path d="M25.0172 -3.64791e-07C20.1719 -2.9409e-07 15.4721 1.41212 11.4252 4.08357C10.9831 4.37543 10.8574 4.97644 11.1443 5.42615C11.4312 5.87586 12.022 6.00361 12.4641 5.71195C16.2008 3.24524 20.5415 1.9413 25.0172 1.9413C37.7499 1.9413 48.1088 12.4788 48.1088 25.431C48.1088 38.3833 37.7499 48.9208 25.0172 48.9208C12.2845 48.9208 1.92561 38.3833 1.92561 25.431C1.92561 18.8262 4.68313 12.4886 9.49104 8.04346C9.88098 7.68285 9.90969 7.06903 9.5553 6.67227C9.20081 6.2755 8.59739 6.2462 8.20735 6.6069C3.00247 11.4192 0.0172122 18.2803 0.0172123 25.431C0.0172124 39.4539 11.2321 50.8621 25.0172 50.8621C38.8024 50.8621 50.0172 39.4539 50.0172 25.431C50.0172 11.4082 38.8024 -5.65938e-07 25.0172 -3.64791e-07Z" fill="#F88500"/>
<path d="M42.0011 13.8956C41.7083 13.4502 41.1155 13.3303 40.6776 13.6286C40.2395 13.9265 40.122 14.5295 40.4151 14.9749C42.452 18.0724 43.5287 21.6879 43.5287 25.4311C43.5287 35.8143 35.2245 44.2617 25.0172 44.2617C14.81 44.2617 6.50581 35.8143 6.50581 25.4311C6.50581 15.0479 14.81 6.60048 25.0172 6.60048C29.8865 6.60048 34.4843 8.50801 37.9637 11.9717C38.3405 12.3468 38.9447 12.34 39.313 11.9569C39.6818 11.5738 39.6751 10.9592 39.2985 10.5843C35.4602 6.7634 30.3885 4.65918 25.0172 4.65918C13.7577 4.65918 4.59741 13.9774 4.59741 25.4311C4.59741 36.8848 13.7577 46.203 25.0172 46.203C36.2768 46.203 45.4371 36.8848 45.4371 25.4311C45.4371 21.3024 44.2489 17.3133 42.0011 13.8956Z" fill="#F88500"/>
<path d="M25.0172 10.6125C21.8727 10.6125 18.8784 11.6157 16.358 13.5137C15.9344 13.8327 15.8453 14.4404 16.1588 14.8713C16.4726 15.3025 17.07 15.393 17.4934 15.0739C19.6828 13.4253 22.2845 12.5539 25.0172 12.5539C31.9974 12.5539 37.6762 18.3307 37.6762 25.4311C37.6762 31.3534 33.7371 36.4911 28.0971 37.9247C27.5858 38.0547 27.2749 38.5816 27.4027 39.1018C27.5111 39.5429 27.9002 39.8374 28.3278 39.8374C28.4043 39.8374 28.4823 39.8279 28.56 39.8083C35.0511 38.158 39.5846 32.246 39.5846 25.4311C39.5846 17.26 33.0497 10.6125 25.0172 10.6125Z" fill="#F88500"/>
<path d="M17.0094 35.4049C14.0534 32.9461 12.3582 29.3107 12.3582 25.431C12.3582 22.7461 13.162 20.1737 14.6829 17.9919C14.9878 17.5546 14.8864 16.9488 14.4565 16.6387C14.0267 16.3285 13.431 16.4318 13.1262 16.8691C11.3752 19.3809 10.4498 22.3416 10.4498 25.431C10.4498 29.8954 12.4003 34.0785 15.8014 36.9077C15.9786 37.0552 16.1925 37.127 16.4049 37.127C16.6813 37.127 16.9554 37.0055 17.1441 36.7709C17.4777 36.3557 17.4173 35.7442 17.0094 35.4049Z" fill="#F88500"/>
<path d="M33.2869 24.4604C32.7598 24.4604 32.3327 24.8948 32.3327 25.4311C32.3327 29.5345 29.0511 32.8727 25.0172 32.8727C20.9833 32.8727 17.7017 29.5345 17.7017 25.4311C17.7017 21.3276 20.9833 17.9894 25.0172 17.9894C25.5443 17.9894 25.9714 17.555 25.9714 17.0187C25.9714 16.4826 25.5443 16.0481 25.0172 16.0481C19.9311 16.0481 15.7933 20.2572 15.7933 25.4311C15.7933 30.6049 19.9311 34.814 25.0172 34.814C30.1033 34.814 34.2411 30.6049 34.2411 25.4311C34.2411 24.8948 33.814 24.4604 33.2869 24.4604Z" fill="#F88500"/>
<path d="M25.0172 21.4836C22.8777 21.4836 21.1368 23.2545 21.1368 25.4309C21.1368 27.6074 22.8777 29.3782 25.0172 29.3782C27.1568 29.3782 28.8976 27.6074 28.8976 25.4309C28.8976 23.2545 27.1568 21.4836 25.0172 21.4836ZM25.0172 27.4369C23.9298 27.4369 23.0452 26.5371 23.0452 25.4309C23.0452 24.3248 23.9298 23.4249 25.0172 23.4249C26.1046 23.4249 26.9892 24.3248 26.9892 25.4309C26.9892 26.5371 26.1046 27.4369 25.0172 27.4369Z" fill="#F88500"/>
</g>
<defs>
<clipPath id="clip0_24_354">
<rect width="50" height="50.8621" fill="white" transform="translate(0.0172119)"/>
</clipPath>
</defs>
</svg>
